<svg xmlns="http://www.w3.org/2000/svg" viewBox="0 0 452.4 683.8" enable-background="new 0 0 452.4 683.8"><path d="M447.2 275.1l-63.1-42.3c-50.9-34.1-101.8-68.2-152.7-102.4-3.3-2.2-5.5-2.7-9.2-.3-37 25-74.1 49.8-111.2 74.6-7.7 5.1-15.4 10.2-23.8 15.8 0-9.3-.1-17.5 0-25.6.1-3.2-1-4.5-4.3-4.4-6.5.2-13 .3-19.5-.1-4.3-.3-5.4 1.4-5.3 5.4.2 13.3.2 26.7-.1 40 0 2-1 4.9-2.5 5.9-18.3 12.6-36.9 24.9-55.5 37.3v1c17.3.1 34.6.5 51.9.2 5.5-.1 6.9 1.6 6.9 7-.2 88.2-.1 176.3-.1 264.5 0 8 0 8 8 8h109l88.5-.2c41.8 0 83.6 0 125.5.2 4.3 0 5.7-1.3 5.6-5.7-.3-19.7-.3-39.3-.3-59 0-36.3-.1-72.7.1-109 0-4.8-1.5-6.3-6.3-6.2-31.7.2-63.3.1-95 .1-21.5 0-43 .1-64.5-.1-4.1 0-5.6 1.3-5.5 5.5.3 6.2.2 12.3 0 18.5-.1 3.5 1.2 4.7 4.7 4.6 7.7-.2 15.3-.1 23-.1 24.5 0 49 .1 73.5-.1 4.1 0 5.2 1.1 3.5 4.8-3.2 6.9-6.6 13.7-9.5 20.8-1 2.4-1.1 5.3-.8 7.9.5 3.9 1.9 7.7 2.4 11.7.1.9.3 2 .3 2.9.3.6.4 1.3.3 2.1-.1 1.3.8 3.1.9 4.5.1 1.3 0 2.4.4 3.6 1 3.2 1.6 5.8 0 9l-.1.2c-1 4.1-2 8.6-4.4 11.9-3.2 4.4-7.8 7.6-11.7 11.5-5.1 5-10.8 8.1-18.1 9.1-9 1.3-17.4 4.4-22.4 13-.4.8-1.7 1-2.3 1.7-1.1 1.3-2.9 2.9-2.7 4.2 1.3 10.8-6.1 15.4-13.8 19.6l-.4.2c-.4.3-.9.6-1.4.8-1.2.9-2.7 1.6-4.2 2.2-2.4 1.1-5.6 2.3-8.4 2-.6 0-1.2 0-2-.1-6.1-.9-12.3-1.2-18.2-2.8-7.2-1.9-14.6-3.8-21-7.5-4.2-2.4-8.7-7.5-9.5-12-.9-5.2-3.6-8.8-5.8-13-2.5-4.6-6.4-6.8-11.1-8.5-5.6-2-11-4.6-16.5-6.9-.9-.4-2-1.4-2.6-1.2-3.8 1.7-5.2-1.2-6.7-3.4-10.6-16-15.7-33.2-11.7-52.4 1.6-7.7 3-15.3-3.9-21.5-.8-.7-1.1-2-1.6-3.1-10.9-25.7-12.4-51.7-4-78.5 15.6-50.2 66.5-84.5 120.8-76.1 48.9 7.6 80.1 36.6 93.2 84.5 1 3.7 2.6 5 6.5 5 16.7-.2 33.3-.3 50 0 5 .1 6.6-1.4 6.6-6.5l-.2-62c0-4 1.1-5.5 5.3-5.5 15.7.2 31.3.1 47 .1l5.2-.2c-1.5-2.6-3.3-3.9-5.2-5.2zM35.3 134c5.5.9 11.2.8 16.9.6 6-.1 11.9-1.1 17.9-1.1 1.8 0 4.7 1.3 5.3 2.8.6 1.4-.8 4-1.9 5.6-2.1 3-4.9 5.5-6.8 8.5-6 9.5-2.7 24.5 6.1 29.4-1.8-13.3.4-18.9 10.5-28.5 3.2-3.1 6.2-6.6 8.4-10.4 4.6-8 1.8-16.2-6.5-20.6-6.2-3.3-12.8-2.9-19.5-2.1-3 .3-6 .4-8.9.3-.7 0-1.6-1-2-1.8-.2-.3.8-1.5 1.4-1.8 1-.5 2.2-.6 3.3-.9 9.6-2.5 19-5.3 26-12.9 7.1-7.7 6.9-17.9-1-24.7-5.4-4.6-11.7-8.2-17.5-12.3-5.8-4-5.9-4.8-.8-9.5 17.6-16.3 20.5-33.8 8.8-54.6h-1c1.7 20.9-4.9 37.9-23.1 49.6-2.6 1.7-4.9 4-6.8 6.5-3.5 4.6-3.4 9.5.7 13.6 3.6 3.5 8 6.4 12.3 9.2l10.1 5.4c5.3 3.5 5 7.8-1 10.2-3.2 1.3-6.7 1.6-10.1 2.3-8.4 1.7-17.2 2.4-25.2 5.2-7.7 2.7-11.1 10.6-10 18.3.9 7.2 5.8 12.3 14.4 13.7zM267.8 587.2c-2.5-15.1-2.6-15.2-18.2-14.1-1.7.1-4.1 2-4.8 3.6-2 4.7-3.3 9.7-4.9 14.7-5.7 17.7-11.3 35.4-17.4 54.5-.8-1.9-1.1-2.5-1.2-3.1-6-18.9-11.9-37.8-17.9-56.6-4.3-13.4-4.4-13.2-18.5-13.3-4.3 0-5.6 1.7-6.3 5.7-4.7 29.4-9.6 58.7-14.7 88.1-2.5 14.8-2.8 14.7 12.1 14.7h1.5c3.1.3 4.4-1.1 4.8-4.2.7-5.9 1.9-11.8 2.9-17.7 2.3-13.9 4.6-27.8 7.2-43 .8 2.2 1.2 3 1.5 3.9l15.4 48.5c4.2 13.1 4.2 13.1 17.9 12.6.2 0 .4.1.5 0 1.5-1.1 3.9-2 4.5-3.5 2.6-7 4.7-14.2 7-21.3 4.2-12.9 8.3-25.8 12.5-38.8 3.6 16.9 6.1 33.7 9 50.5 2.8 15.7-.8 12.8 14.7 13.1.8 0 1.7-.1 2.5 0 4.1.6 4.8-1.4 4.2-4.9-4.7-30-9.4-59.7-14.3-89.4zM393.5 625.6c-14 .3-28 .2-42 .1-3.4 0-4.9 1-4.7 4.5.2 3.7.2 7.3 0 11-.3 4.1 1.5 5.2 5.3 5.1 7.6-.2 15.2-.1 23.4-.1-.5 1.4-.7 2.2-1.1 2.9-5.9 10.5-15.3 14.1-26.8 13.8-14.7-.4-27.6-10-32.2-24.1-5-15.3-.3-31.5 12-40.9 11.2-8.5 28.2-9 40.4-1 3.9 2.5 8.1 7.7 11.4 7.1 3.9-.7 6.9-6.2 10.3-9.7.1-.1.2-.2.4-.3 2.4-1.8 2.2-3.6.3-5.9-15.9-18.9-50.6-23.6-71.4-9.8-24.7 16.4-32.8 47.5-19.7 75.1 11.1 23.4 36.1 34.8 62.8 28.8 21.1-4.7 37.7-27.1 37.8-50.7-.3-4.3-1.5-6-6.2-5.9zM147.2 587.3c0-14.5 0-14.4-14.4-14.5-4.5 0-6.1 1.2-6.1 5.9.2 19.2.1 38.3 0 57.5 0 1.3-.2 2.7-.3 5.1-12.3-19.8-24.6-38.3-35.5-57.5-5-8.8-10.7-12.2-20.5-11.1-4.6.5-5.8 1.7-5.8 6.2.2 29.6.1 59.3.1 88.9 0 13.4 0 13.2 13.2 13.6 5.4.2 7.2-1.3 7.1-6.9-.3-20.5 0-40.9 0-61.4 11.8 18.9 24.2 37.5 35.3 56.8 5 8.7 10.5 12.9 20.7 11.6 4.6-.6 6.3-1.4 6.3-6.3-.2-29.3-.1-58.6-.1-87.9zM211.7 460.3c-3.3-6.7-13.1-14-20.4-13.7-11.4.4-22.8.2-34.2.7-3.2.1-7.6.8-9.3 3-8 10.1-5.3 24.8 6.4 30.6 8.2 4.1 17.5 5.9 26.4 8.6 1 .3 2.3 0 3.4-.5 6.4-2.6 12.7-5.3 19.1-8l.1.1-.1-.1c6.1-5.5 13.9-9.9 8.6-20.7zM279.1 492.4c1.9-.4 4.8-.9 7.6-1.8 7.7-2.4 12.8-7.9 17.7-13.9 5-6.2 4.6-13.2-1.4-18.3-6-5.2-12.9-7-20.8-6.4-4.6.4-9.3-.7-13.9-1.1-1.1-.1-2.5-.2-3.4.3-7 4.4-13.9 8.8-20.7 13.4-.6.4-1 2-.7 2.8 1.9 4.8 2.8 10.6 6.2 14 7.7 7.5 17.7 10.4 29.4 11zM157.2 353.1c-9.2 2.6-18.6 4.8-27.8 7.3-.9.2-1.6 1-2.4 1.6.7.4 1.5 1.2 2.1 1.2 5.4-.4 10.9-.9 16.3-1.6 5.5-.7 10.7-1.3 14.8 3.9 2 2.6 5 4.4 7.6 6.5.7.5 2.2.8 2.7.3 5.7-4.5 9-1.6 13.5 2.8 1.7 1.6 3.6 3 5.4 4.5l1.3-1.3c-1.5-2.5-3.7-4.8-4.3-7.5-.7-3.8-.6-7.9 0-11.7.4-2.4 7.3-3.2 2-7.4-.1-.1.5-1.6 1.1-2l4.7-3.4c3.2-2.6 6.4-5.3 9.6-8l-1-1.3-6 2.2c-1.6.8-3.3 1.5-4.9 2.4-6.7 4.1-11.3 2-13.2-5.4-1.1-4.5-3.4-8.7-4.9-13.1-.4-1.1 0-2.8.5-3.9l7.9-16c.5-1.1.1-2.5.1-3.8-3.8 3.5-7 6.9-9 10.9-2.7 5.5-6.1 11.3-2.5 17.6 2.5 4.4.8 8.4-.3 12.5-.2 1-1.3 2.4-1.9 2.4-1.1 0-2.3-.8-3.1-1.7-2-1.9-3.7-4-5.6-6.1l-1.3 1c1.1 2 2.2 3.9 3.1 6 3 5.3 1.4 9.5-4.5 11.1zM241.2 500.1c-4.6.4-4.7-2.7-5.9-5.1-3.2-6.2-4.9-7-11.4-4.9-11.3 3.6-16.3 10.3-16.9 22.2-.2 3.2 1.3 5.2 4.2 4.8 7.8-1.1 15.5-3.9 21.6 1.1 6 .1 13.1-4.5 13-8.9-.2-3.3-3.2-9.3-4.6-9.2z"/></svg>